# xmcd
#
# Track frame offsets:
#	150
#	10232
#	18807
#	29505
#	40531
#	48945
#	57401
#	67180
#	76581
#	85876
#	97797
#	108381
#	118568
#	131109
#	138813
#	166695
#
# Disc length: 2325 seconds
#
# Revision: 1
# Processed by: cddbd v1.5.2PL0 Copyright (c) Steve Scherf et al.
# Submitted via: audiograbber 1.83.01
#
DISCID=bc091310
DTITLE=Jim Reeves - Theres Someone Who Loves you
DYEAR=2004
DGENRE=Country
TTITLE0=Anna Marie
TTITLE1=Read This Letter
TTITLE2=It's Nothin' to me
TTITLE3=I Love you More
TTITLE4=Subconscious Mind
TTITLE5=Theres Someone Who Loves you
TTITLE6=Four Walls
TTITLE7=Crying In My Sleep
TTITLE8=Then I'l Stop loving you
TTITLE9=How Many Tears From Now
TTITLE10=Your Old Love letters
TTITLE11=Overnight
TTITLE12=If Heartache Is In Fashion
TTITLE13=An Evening Prayer
TTITLE14=An Interview With Jim Reeves
TTITLE15=An Interview With The Blue Boys
EXTD=
EXTT0=
EXTT1=
EXTT2=
EXTT3=
EXTT4=
EXTT5=
EXTT6=
EXTT7=
EXTT8=
EXTT9=
EXTT10=
EXTT11=
EXTT12=
EXTT13=
EXTT14=
EXTT15=
PLAYORDER=
